<svg xmlns="http://www.w3.org/2000/svg" width="1440" height="900"><path d="M458,415L108,369L381,542Z" fill="#bfbddb" stroke="#bfbddb" stroke-width="1.51"/><path d="M458,415L324,154L108,369Z" fill="#d2d2e7" stroke="#d2d2e7" stroke-width="1.51"/><path d="M324,154L228,132L108,369Z" fill="#e2e2f0" stroke="#e2e2f0" stroke-width="1.51"/><path d="M108,369L8,663L381,542Z" fill="#bdb9da" stroke="#bdb9da" stroke-width="1.51"/><path d="M381,542L513,744L458,415Z" fill="#a5a2ce" stroke="#a5a2ce" stroke-width="1.51"/><path d="M299,855L513,744L381,542Z" fill="#9d89c2" stroke="#9d89c2" stroke-width="1.51"/><path d="M8,663L299,855L381,542Z" fill="#a998ca" stroke="#a998ca" stroke-width="1.51"/><path d="M324,154L112,-102L228,132Z" fill="#efeef6" stroke="#efeef6" stroke-width="1.51"/><path d="M458,415L540,-19L324,154Z" fill="#d7d7e9" stroke="#d7d7e9" stroke-width="1.51"/><path d="M865,199L540,-19L458,415Z" fill="#c6c5e0" stroke="#c6c5e0" stroke-width="1.51"/><path d="M-213,-66L-316,149L108,369Z" fill="#f2f1f7" stroke="#f2f1f7" stroke-width="1.51"/><path d="M108,369L-316,149L8,663Z" fill="#d4d2e7" stroke="#d4d2e7" stroke-width="1.51"/><path d="M540,-19L112,-102L324,154Z" fill="#ececf4" stroke="#ececf4" stroke-width="1.51"/><path d="M958,593L865,199L458,415Z" fill="#a19ecb" stroke="#a19ecb" stroke-width="1.51"/><path d="M513,744L958,593L458,415Z" fill="#948fc4" stroke="#948fc4" stroke-width="1.51"/><path d="M299,855L430,1011L513,744Z" fill="#8e70b4" stroke="#8e70b4" stroke-width="1.51"/><path d="M206,1122L430,1011L299,855Z" fill="#9372b5" stroke="#9372b5" stroke-width="1.51"/><path d="M-213,-66L108,369L228,132Z" fill="#f1eff6" stroke="#f1eff6" stroke-width="1.51"/><path d="M8,663L-155,884L299,855Z" fill="#a78ac4" stroke="#a78ac4" stroke-width="1.51"/><path d="M-307,852L-155,884L8,663Z" fill="#a98cc5" stroke="#a98cc5" stroke-width="1.51"/><path d="M112,-102L-213,-66L228,132Z" fill="#faf9fc" stroke="#faf9fc" stroke-width="1.51"/><path d="M235,-411L-13,-207L112,-102Z" fill="#f8f6fa" stroke="#f8f6fa" stroke-width="1.51"/><path d="M-13,-207L-213,-66L112,-102Z" fill="#fcfbfd" stroke="#fcfbfd" stroke-width="1.51"/><path d="M430,1011L806,847L513,744Z" fill="#8063ac" stroke="#8063ac" stroke-width="1.51"/><path d="M806,847L958,593L513,744Z" fill="#7d69b0" stroke="#7d69b0" stroke-width="1.51"/><path d="M540,-19L235,-411L112,-102Z" fill="#eeeef6" stroke="#eeeef6" stroke-width="1.51"/><path d="M865,199L872,-13L540,-19Z" fill="#c7c3df" stroke="#c7c3df" stroke-width="1.51"/><path d="M1026,262L872,-13L865,199Z" fill="#b3aed4" stroke="#b3aed4" stroke-width="1.51"/><path d="M-155,884L206,1122L299,855Z" fill="#9d7bba" stroke="#9d7bba" stroke-width="1.51"/><path d="M430,1011L507,1119L806,847Z" fill="#7e5faa" stroke="#7e5faa" stroke-width="1.51"/><path d="M-155,884L-56,1250L206,1122Z" fill="#a17fbd" stroke="#a17fbd" stroke-width="1.51"/><path d="M-486,710L-307,852L8,663Z" fill="#ae96ca" stroke="#ae96ca" stroke-width="1.51"/><path d="M958,593L1026,262L865,199Z" fill="#9994c7" stroke="#9994c7" stroke-width="1.51"/><path d="M206,1122L507,1119L430,1011Z" fill="#8e6fb3" stroke="#8e6fb3" stroke-width="1.51"/><path d="M958,593L1069,558L1026,262Z" fill="#857ab8" stroke="#857ab8" stroke-width="1.51"/><path d="M1125,979L1069,558L958,593Z" fill="#694ea2" stroke="#694ea2" stroke-width="1.51"/><path d="M-13,-207L-470,-246L-213,-66Z" fill="#fcfbfd" stroke="#fcfbfd" stroke-width="1.51"/><path d="M644,-328L235,-411L540,-19Z" fill="#e1e1ef" stroke="#e1e1ef" stroke-width="1.51"/><path d="M774,-319L644,-328L540,-19Z" fill="#d2d0e6" stroke="#d2d0e6" stroke-width="1.51"/><path d="M-316,149L-486,710L8,663Z" fill="#c5c1df" stroke="#c5c1df" stroke-width="1.51"/><path d="M872,-13L774,-319L540,-19Z" fill="#ccc9e2" stroke="#ccc9e2" stroke-width="1.51"/><path d="M644,-328L774,-319L235,-411Z" fill="#dbdbec" stroke="#dbdbec" stroke-width="1.51"/><path d="M1136,-285L774,-319L872,-13Z" fill="#bdb6da" stroke="#bdb6da" stroke-width="1.51"/><path d="M206,1122L-56,1250L507,1119Z" fill="#9877b8" stroke="#9877b8" stroke-width="1.51"/><path d="M-417,1316L-56,1250L-155,884Z" fill="#a17fbd" stroke="#a17fbd" stroke-width="1.51"/><path d="M-417,1316L-155,884L-307,852Z" fill="#a17fbd" stroke="#a17fbd" stroke-width="1.51"/><path d="M806,847L1125,979L958,593Z" fill="#66499f" stroke="#66499f" stroke-width="1.51"/><path d="M507,1119L803,1185L806,847Z" fill="#7354a3" stroke="#7354a3" stroke-width="1.51"/><path d="M-56,1250L803,1185L507,1119Z" fill="#8b6cb1" stroke="#8b6cb1" stroke-width="1.51"/><path d="M1378,389L1143,-9L1026,262Z" fill="#9e88c2" stroke="#9e88c2" stroke-width="1.51"/><path d="M1026,262L1143,-9L872,-13Z" fill="#b3a6d1" stroke="#b3a6d1" stroke-width="1.51"/><path d="M-316,149L-470,-246L-486,710Z" fill="#edecf5" stroke="#edecf5" stroke-width="1.51"/><path d="M-213,-66L-470,-246L-316,149Z" fill="#fcfbfd" stroke="#fcfbfd" stroke-width="1.51"/><path d="M235,-411L-470,-246L-13,-207Z" fill="#fcfbfd" stroke="#fcfbfd" stroke-width="1.51"/><path d="M803,1185L1125,979L806,847Z" fill="#62449b" stroke="#62449b" stroke-width="1.51"/><path d="M1069,558L1378,389L1026,262Z" fill="#8773b5" stroke="#8773b5" stroke-width="1.51"/><path d="M1143,-9L1136,-285L872,-13Z" fill="#b5a6d2" stroke="#b5a6d2" stroke-width="1.51"/><path d="M774,-319L1661,-352L235,-411Z" fill="#bfbbdc" stroke="#bfbbdc" stroke-width="1.51"/><path d="M1457,747L1378,389L1069,558Z" fill="#694fa2" stroke="#694fa2" stroke-width="1.51"/><path d="M1143,-9L1517,-218L1136,-285Z" fill="#aa8dc5" stroke="#aa8dc5" stroke-width="1.51"/><path d="M1125,979L1457,747L1069,558Z" fill="#5a3294" stroke="#5a3294" stroke-width="1.51"/><path d="M803,1185L1201,1083L1125,979Z" fill="#583392" stroke="#583392" stroke-width="1.51"/><path d="M-486,710L-417,1316L-307,852Z" fill="#a17fbd" stroke="#a17fbd" stroke-width="1.51"/><path d="M-56,1250L-417,1316L803,1185Z" fill="#9d7bba" stroke="#9d7bba" stroke-width="1.51"/><path d="M1201,1083L1457,747L1125,979Z" fill="#4a1686" stroke="#4a1686" stroke-width="1.51"/><path d="M1642,278L1523,45L1378,389Z" fill="#8f6fb3" stroke="#8f6fb3" stroke-width="1.51"/><path d="M1378,389L1523,45L1143,-9Z" fill="#9d7ebc" stroke="#9d7ebc" stroke-width="1.51"/><path d="M1457,747L1569,771L1378,389Z" fill="#5a3694" stroke="#5a3694" stroke-width="1.51"/><path d="M1486,1089L1569,771L1457,747Z" fill="#42067f" stroke="#42067f" stroke-width="1.51"/><path d="M1569,771L1642,278L1378,389Z" fill="#6e4fa0" stroke="#6e4fa0" stroke-width="1.51"/><path d="M1661,-352L1517,-218L1788,-141Z" fill="#a17fbd" stroke="#a17fbd" stroke-width="1.51"/><path d="M1523,45L1517,-218L1143,-9Z" fill="#a483bf" stroke="#a483bf" stroke-width="1.51"/><path d="M1201,1083L1486,1089L1457,747Z" fill="#430880" stroke="#430880" stroke-width="1.51"/><path d="M1640,1242L1486,1089L1201,1083Z" fill="#3f007d" stroke="#3f007d" stroke-width="1.51"/><path d="M1517,-218L1661,-352L1136,-285Z" fill="#a17fbd" stroke="#a17fbd" stroke-width="1.51"/><path d="M1136,-285L1661,-352L774,-319Z" fill="#ae96ca" stroke="#ae96ca" stroke-width="1.51"/><path d="M1788,-141L1517,-218L1523,45Z" fill="#a17fbd" stroke="#a17fbd" stroke-width="1.51"/><path d="M1642,278L1788,-141L1523,45Z" fill="#9d7bbb" stroke="#9d7bbb" stroke-width="1.51"/><path d="M1911,505L1788,-141L1642,278Z" fill="#9171b4" stroke="#9171b4" stroke-width="1.51"/><path d="M803,1185L1640,1242L1201,1083Z" fill="#4d1d88" stroke="#4d1d88" stroke-width="1.51"/><path d="M1486,1089L1892,1014L1569,771Z" fill="#3f007d" stroke="#3f007d" stroke-width="1.51"/><path d="M1569,771L1911,505L1642,278Z" fill="#684a9e" stroke="#684a9e" stroke-width="1.51"/><path d="M-417,1316L1640,1242L803,1185Z" fill="#7557a5" stroke="#7557a5" stroke-width="1.51"/><path d="M1892,1014L1911,505L1569,771Z" fill="#4c1d88" stroke="#4c1d88" stroke-width="1.51"/><path d="M1640,1242L1892,1014L1486,1089Z" fill="#3f007d" stroke="#3f007d" stroke-width="1.51"/></svg>