<svg xmlns="http://www.w3.org/2000/svg" width="1440" height="900"><path d="M735,469L740,392L668,459Z" fill="#a09cca" stroke="#a09cca" stroke-width="1.51"/><path d="M740,392L638,378L668,459Z" fill="#a6a3cd" stroke="#a6a3cd" stroke-width="1.51"/><path d="M740,392L686,305L638,378Z" fill="#adabd2" stroke="#adabd2" stroke-width="1.51"/><path d="M846,442L771,321L740,392Z" fill="#a19ecb" stroke="#a19ecb" stroke-width="1.51"/><path d="M771,321L686,305L740,392Z" fill="#acaad1" stroke="#acaad1" stroke-width="1.51"/><path d="M735,469L846,442L740,392Z" fill="#9c98c8" stroke="#9c98c8" stroke-width="1.51"/><path d="M668,459L639,646L735,469Z" fill="#9894c6" stroke="#9894c6" stroke-width="1.51"/><path d="M735,469L855,511L846,442Z" fill="#948fc3" stroke="#948fc3" stroke-width="1.51"/><path d="M523,388L587,532L668,459Z" fill="#a7a5ce" stroke="#a7a5ce" stroke-width="1.51"/><path d="M803,617L855,511L735,469Z" fill="#8d89c0" stroke="#8d89c0" stroke-width="1.51"/><path d="M638,378L523,388L668,459Z" fill="#acabd1" stroke="#acabd1" stroke-width="1.51"/><path d="M571,262L523,388L638,378Z" fill="#b8b8d9" stroke="#b8b8d9" stroke-width="1.51"/><path d="M846,442L861,319L771,321Z" fill="#a19fcc" stroke="#a19fcc" stroke-width="1.51"/><path d="M786,166L657,198L686,305Z" fill="#bdbbda" stroke="#bdbbda" stroke-width="1.51"/><path d="M948,321L861,319L846,442Z" fill="#9d9aca" stroke="#9d9aca" stroke-width="1.51"/><path d="M639,646L803,617L735,469Z" fill="#8d88c0" stroke="#8d88c0" stroke-width="1.51"/><path d="M686,305L571,262L638,378Z" fill="#b7b7d8" stroke="#b7b7d8" stroke-width="1.51"/><path d="M657,198L571,262L686,305Z" fill="#bfbedc" stroke="#bfbedc" stroke-width="1.51"/><path d="M587,532L639,646L668,459Z" fill="#9996c7" stroke="#9996c7" stroke-width="1.51"/><path d="M587,532L599,633L639,646Z" fill="#958ec3" stroke="#958ec3" stroke-width="1.51"/><path d="M453,560L599,633L587,532Z" fill="#9d99c9" stroke="#9d99c9" stroke-width="1.51"/><path d="M855,511L936,483L846,442Z" fill="#8d89c0" stroke="#8d89c0" stroke-width="1.51"/><path d="M892,606L936,483L855,511Z" fill="#8581bc" stroke="#8581bc" stroke-width="1.51"/><path d="M786,166L686,305L771,321Z" fill="#b4b2d6" stroke="#b4b2d6" stroke-width="1.51"/><path d="M523,388L459,470L587,532Z" fill="#acabd1" stroke="#acabd1" stroke-width="1.51"/><path d="M450,439L459,470L523,388Z" fill="#b4b3d6" stroke="#b4b3d6" stroke-width="1.51"/><path d="M639,646L729,679L803,617Z" fill="#877ab9" stroke="#877ab9" stroke-width="1.51"/><path d="M681,720L729,679L639,646Z" fill="#8777b7" stroke="#8777b7" stroke-width="1.51"/><path d="M861,319L839,213L771,321Z" fill="#aca9d1" stroke="#aca9d1" stroke-width="1.51"/><path d="M948,321L839,213L861,319Z" fill="#a7a5cf" stroke="#a7a5cf" stroke-width="1.51"/><path d="M803,617L892,606L855,511Z" fill="#837ebb" stroke="#837ebb" stroke-width="1.51"/><path d="M827,724L892,606L803,617Z" fill="#7d70b3" stroke="#7d70b3" stroke-width="1.51"/><path d="M444,328L450,439L523,388Z" fill="#bbbbdb" stroke="#bbbbdb" stroke-width="1.51"/><path d="M936,483L948,321L846,442Z" fill="#9390c4" stroke="#9390c4" stroke-width="1.51"/><path d="M571,262L444,328L523,388Z" fill="#c0c0de" stroke="#c0c0de" stroke-width="1.51"/><path d="M657,198L606,181L571,262Z" fill="#c6c5e0" stroke="#c6c5e0" stroke-width="1.51"/><path d="M657,139L606,181L657,198Z" fill="#c7c6e0" stroke="#c7c6e0" stroke-width="1.51"/><path d="M839,213L786,166L771,321Z" fill="#b5b2d6" stroke="#b5b2d6" stroke-width="1.51"/><path d="M463,212L444,328L571,262Z" fill="#cacae3" stroke="#cacae3" stroke-width="1.51"/><path d="M398,544L453,560L459,470Z" fill="#acaad2" stroke="#acaad2" stroke-width="1.51"/><path d="M459,470L453,560L587,532Z" fill="#a7a5cf" stroke="#a7a5cf" stroke-width="1.51"/><path d="M398,544L459,470L369,435Z" fill="#b4b1d5" stroke="#b4b1d5" stroke-width="1.51"/><path d="M571,733L681,720L639,646Z" fill="#8a79b9" stroke="#8a79b9" stroke-width="1.51"/><path d="M943,673L945,620L892,606Z" fill="#786bb1" stroke="#786bb1" stroke-width="1.51"/><path d="M571,733L639,646L599,633Z" fill="#8f81bd" stroke="#8f81bd" stroke-width="1.51"/><path d="M743,110L657,139L657,198Z" fill="#c6c3df" stroke="#c6c3df" stroke-width="1.51"/><path d="M936,483L1011,435L948,321Z" fill="#9089c1" stroke="#9089c1" stroke-width="1.51"/><path d="M1076,515L1011,435L936,483Z" fill="#857bb9" stroke="#857bb9" stroke-width="1.51"/><path d="M892,606L945,620L936,483Z" fill="#7e78b8" stroke="#7e78b8" stroke-width="1.51"/><path d="M827,724L803,617L729,679Z" fill="#7f70b3" stroke="#7f70b3" stroke-width="1.51"/><path d="M742,775L827,724L729,679Z" fill="#7c68af" stroke="#7c68af" stroke-width="1.51"/><path d="M786,166L743,110L657,198Z" fill="#c1bedc" stroke="#c1bedc" stroke-width="1.51"/><path d="M799,26L743,110L786,166Z" fill="#c2bedd" stroke="#c2bedd" stroke-width="1.51"/><path d="M902,55L786,166L839,213Z" fill="#bab6d8" stroke="#bab6d8" stroke-width="1.51"/><path d="M453,560L505,682L599,633Z" fill="#9a91c5" stroke="#9a91c5" stroke-width="1.51"/><path d="M545,89L463,212L606,181Z" fill="#d1d1e6" stroke="#d1d1e6" stroke-width="1.51"/><path d="M606,181L463,212L571,262Z" fill="#cbcbe3" stroke="#cbcbe3" stroke-width="1.51"/><path d="M453,560L372,657L505,682Z" fill="#a095c8" stroke="#a095c8" stroke-width="1.51"/><path d="M369,435L459,470L450,439Z" fill="#b7b5d7" stroke="#b7b5d7" stroke-width="1.51"/><path d="M369,435L450,439L444,328Z" fill="#bdbcdb" stroke="#bdbcdb" stroke-width="1.51"/><path d="M505,682L571,733L599,633Z" fill="#9282be" stroke="#9282be" stroke-width="1.51"/><path d="M681,720L742,775L729,679Z" fill="#816cb1" stroke="#816cb1" stroke-width="1.51"/><path d="M306,381L369,435L444,328Z" fill="#c4c3df" stroke="#c4c3df" stroke-width="1.51"/><path d="M827,724L943,673L892,606Z" fill="#7769af" stroke="#7769af" stroke-width="1.51"/><path d="M1076,515L1071,439L1011,435Z" fill="#8577b6" stroke="#8577b6" stroke-width="1.51"/><path d="M666,810L742,775L681,720Z" fill="#7f67af" stroke="#7f67af" stroke-width="1.51"/><path d="M827,724L852,764L943,673Z" fill="#7461ab" stroke="#7461ab" stroke-width="1.51"/><path d="M398,544L384,574L453,560Z" fill="#a9a7d0" stroke="#a9a7d0" stroke-width="1.51"/><path d="M270,541L384,574L398,544Z" fill="#afacd3" stroke="#afacd3" stroke-width="1.51"/><path d="M948,321L1009,236L839,213Z" fill="#a7a2cf" stroke="#a7a2cf" stroke-width="1.51"/><path d="M1047,243L1009,236L948,321Z" fill="#a298c9" stroke="#a298c9" stroke-width="1.51"/><path d="M1115,338L1047,243L948,321Z" fill="#9c90c5" stroke="#9c90c5" stroke-width="1.51"/><path d="M1076,515L936,483L945,620Z" fill="#7e75b6" stroke="#7e75b6" stroke-width="1.51"/><path d="M742,775L852,764L827,724Z" fill="#7760ab" stroke="#7760ab" stroke-width="1.51"/><path d="M657,139L545,89L606,181Z" fill="#cecde4" stroke="#cecde4" stroke-width="1.51"/><path d="M669,31L545,89L657,139Z" fill="#d0cee5" stroke="#d0cee5" stroke-width="1.51"/><path d="M1053,620L1076,515L945,620Z" fill="#7769af" stroke="#7769af" stroke-width="1.51"/><path d="M571,733L666,810L681,720Z" fill="#856eb3" stroke="#856eb3" stroke-width="1.51"/><path d="M976,883L960,812L899,926Z" fill="#61439a" stroke="#61439a" stroke-width="1.51"/><path d="M589,820L666,810L571,733Z" fill="#856bb2" stroke="#856bb2" stroke-width="1.51"/><path d="M463,212L389,213L444,328Z" fill="#d0d0e6" stroke="#d0d0e6" stroke-width="1.51"/><path d="M412,142L389,213L463,212Z" fill="#d8d8ea" stroke="#d8d8ea" stroke-width="1.51"/><path d="M799,26L669,31L743,110Z" fill="#c8c4e0" stroke="#c8c4e0" stroke-width="1.51"/><path d="M1115,338L948,321L1011,435Z" fill="#9389c1" stroke="#9389c1" stroke-width="1.51"/><path d="M505,682L506,763L571,733Z" fill="#907dbc" stroke="#907dbc" stroke-width="1.51"/><path d="M372,657L506,763L505,682Z" fill="#9887c0" stroke="#9887c0" stroke-width="1.51"/><path d="M943,673L1053,620L945,620Z" fill="#7564ad" stroke="#7564ad" stroke-width="1.51"/><path d="M1042,726L1053,620L943,673Z" fill="#6f59a7" stroke="#6f59a7" stroke-width="1.51"/><path d="M743,110L669,31L657,139Z" fill="#cac7e0" stroke="#cac7e0" stroke-width="1.51"/><path d="M979,131L839,213L1009,236Z" fill="#aea7d2" stroke="#aea7d2" stroke-width="1.51"/><path d="M1047,243L979,131L1009,236Z" fill="#a99ecd" stroke="#a99ecd" stroke-width="1.51"/><path d="M305,282L306,381L444,328Z" fill="#cccde4" stroke="#cccde4" stroke-width="1.51"/><path d="M369,435L270,541L398,544Z" fill="#b6b3d6" stroke="#b6b3d6" stroke-width="1.51"/><path d="M384,574L372,657L453,560Z" fill="#a7a0cd" stroke="#a7a0cd" stroke-width="1.51"/><path d="M270,541L372,657L384,574Z" fill="#aca6d0" stroke="#aca6d0" stroke-width="1.51"/><path d="M506,763L589,820L571,733Z" fill="#8a72b6" stroke="#8a72b6" stroke-width="1.51"/><path d="M389,213L337,254L444,328Z" fill="#d2d2e7" stroke="#d2d2e7" stroke-width="1.51"/><path d="M309,237L337,254L389,213Z" fill="#dad9eb" stroke="#dad9eb" stroke-width="1.51"/><path d="M499,56L412,142L545,89Z" fill="#dbdaec" stroke="#dbdaec" stroke-width="1.51"/><path d="M545,89L412,142L463,212Z" fill="#d7d7ea" stroke="#d7d7ea" stroke-width="1.51"/><path d="M902,55L799,26L786,166Z" fill="#bfbbdc" stroke="#bfbbdc" stroke-width="1.51"/><path d="M1071,439L1115,338L1011,435Z" fill="#8c7ebb" stroke="#8c7ebb" stroke-width="1.51"/><path d="M1055,37L1013,31L979,131Z" fill="#b3a7d1" stroke="#b3a7d1" stroke-width="1.51"/><path d="M1148,334L1115,338L1161,442Z" fill="#8c79b9" stroke="#8c79b9" stroke-width="1.51"/><path d="M1115,338L1071,439L1161,442Z" fill="#8977b8" stroke="#8977b8" stroke-width="1.51"/><path d="M979,131L902,55L839,213Z" fill="#b5b1d6" stroke="#b5b1d6" stroke-width="1.51"/><path d="M591,-29L499,56L545,89Z" fill="#d9d9ea" stroke="#d9d9ea" stroke-width="1.51"/><path d="M309,237L305,282L337,254Z" fill="#d8d8ea" stroke="#d8d8ea" stroke-width="1.51"/><path d="M337,254L305,282L444,328Z" fill="#d1d2e7" stroke="#d1d2e7" stroke-width="1.51"/><path d="M412,142L309,237L389,213Z" fill="#dcdbec" stroke="#dcdbec" stroke-width="1.51"/><path d="M227,98L309,237L412,142Z" fill="#e2e2ef" stroke="#e2e2ef" stroke-width="1.51"/><path d="M1161,442L1071,439L1076,515Z" fill="#8171b3" stroke="#8171b3" stroke-width="1.51"/><path d="M960,812L1042,726L943,673Z" fill="#6a52a4" stroke="#6a52a4" stroke-width="1.51"/><path d="M960,812L943,673L852,764Z" fill="#6e57a7" stroke="#6e57a7" stroke-width="1.51"/><path d="M306,381L270,541L369,435Z" fill="#bebbda" stroke="#bebbda" stroke-width="1.51"/><path d="M227,620L270,541L148,545Z" fill="#b5b0d6" stroke="#b5b0d6" stroke-width="1.51"/><path d="M270,541L306,381L165,388Z" fill="#c4c1dd" stroke="#c4c1dd" stroke-width="1.51"/><path d="M1115,338L1148,334L1047,243Z" fill="#9787c0" stroke="#9787c0" stroke-width="1.51"/><path d="M1161,442L1076,515L1201,462Z" fill="#7e6bb1" stroke="#7e6bb1" stroke-width="1.51"/><path d="M878,-59L862,4L902,55Z" fill="#c0bcdc" stroke="#c0bcdc" stroke-width="1.51"/><path d="M902,55L862,4L799,26Z" fill="#c0bcdc" stroke="#c0bcdc" stroke-width="1.51"/><path d="M671,-110L591,-29L669,31Z" fill="#d3d1e6" stroke="#d3d1e6" stroke-width="1.51"/><path d="M1201,462L1076,515L1177,596Z" fill="#7764ad" stroke="#7764ad" stroke-width="1.51"/><path d="M748,934L852,764L742,775Z" fill="#7358a6" stroke="#7358a6" stroke-width="1.51"/><path d="M748,934L742,775L666,810Z" fill="#765aa8" stroke="#765aa8" stroke-width="1.51"/><path d="M589,820L637,888L666,810Z" fill="#7f62ac" stroke="#7f62ac" stroke-width="1.51"/><path d="M562,919L637,888L589,820Z" fill="#7f61ab" stroke="#7f61ab" stroke-width="1.51"/><path d="M562,919L589,820L425,870Z" fill="#8568af" stroke="#8568af" stroke-width="1.51"/><path d="M669,31L591,-29L545,89Z" fill="#d5d3e8" stroke="#d5d3e8" stroke-width="1.51"/><path d="M569,-62L591,-29L671,-110Z" fill="#d6d4e8" stroke="#d6d4e8" stroke-width="1.51"/><path d="M372,657L368,788L506,763Z" fill="#9984bf" stroke="#9984bf" stroke-width="1.51"/><path d="M286,774L368,788L372,657Z" fill="#9e88c2" stroke="#9e88c2" stroke-width="1.51"/><path d="M1161,442L1249,391L1148,334Z" fill="#8772b5" stroke="#8772b5" stroke-width="1.51"/><path d="M1177,596L1076,515L1053,620Z" fill="#7261ac" stroke="#7261ac" stroke-width="1.51"/><path d="M1170,666L1177,596L1053,620Z" fill="#6c55a5" stroke="#6c55a5" stroke-width="1.51"/><path d="M1170,666L1053,620L1042,726Z" fill="#6a51a3" stroke="#6a51a3" stroke-width="1.51"/><path d="M1090,95L979,131L1047,243Z" fill="#ab9ecd" stroke="#ab9ecd" stroke-width="1.51"/><path d="M979,131L1013,31L902,55Z" fill="#b6add5" stroke="#b6add5" stroke-width="1.51"/><path d="M637,888L748,934L666,810Z" fill="#7759a6" stroke="#7759a6" stroke-width="1.51"/><path d="M728,972L748,934L637,888Z" fill="#7354a3" stroke="#7354a3" stroke-width="1.51"/><path d="M1178,161L1090,95L1047,243Z" fill="#a795c8" stroke="#a795c8" stroke-width="1.51"/><path d="M1178,161L1047,243L1148,334Z" fill="#9e8cc3" stroke="#9e8cc3" stroke-width="1.51"/><path d="M591,-29L569,-62L499,56Z" fill="#dbdaec" stroke="#dbdaec" stroke-width="1.51"/><path d="M499,56L364,-18L412,142Z" fill="#e2e1ef" stroke="#e2e1ef" stroke-width="1.51"/><path d="M671,-110L669,31L799,26Z" fill="#cdcae3" stroke="#cdcae3" stroke-width="1.51"/><path d="M878,-59L799,26L862,4Z" fill="#c2bfdd" stroke="#c2bfdd" stroke-width="1.51"/><path d="M425,870L589,820L506,763Z" fill="#8b70b4" stroke="#8b70b4" stroke-width="1.51"/><path d="M270,541L227,620L372,657Z" fill="#ada5d0" stroke="#ada5d0" stroke-width="1.51"/><path d="M165,388L306,381L305,282Z" fill="#cfcfe5" stroke="#cfcfe5" stroke-width="1.51"/><path d="M1013,31L878,-59L902,55Z" fill="#bcb5d9" stroke="#bcb5d9" stroke-width="1.51"/><path d="M227,620L256,686L372,657Z" fill="#a99bcb" stroke="#a99bcb" stroke-width="1.51"/><path d="M960,812L1032,834L1042,726Z" fill="#64459d" stroke="#64459d" stroke-width="1.51"/><path d="M976,883L1032,834L960,812Z" fill="#61419a" stroke="#61419a" stroke-width="1.51"/><path d="M1281,516L1249,391L1201,462Z" fill="#7b62ac" stroke="#7b62ac" stroke-width="1.51"/><path d="M1178,835L1170,666L1042,726Z" fill="#61409a" stroke="#61409a" stroke-width="1.51"/><path d="M368,788L425,870L506,763Z" fill="#9177b9" stroke="#9177b9" stroke-width="1.51"/><path d="M404,898L425,870L368,788Z" fill="#9174b6" stroke="#9174b6" stroke-width="1.51"/><path d="M1013,31L989,-98L878,-59Z" fill="#bbb2d7" stroke="#bbb2d7" stroke-width="1.51"/><path d="M1090,95L1055,37L979,131Z" fill="#b1a2d0" stroke="#b1a2d0" stroke-width="1.51"/><path d="M899,926L960,812L852,764Z" fill="#684da1" stroke="#684da1" stroke-width="1.51"/><path d="M748,934L899,926L852,764Z" fill="#6a4ea0" stroke="#6a4ea0" stroke-width="1.51"/><path d="M787,-143L671,-110L799,26Z" fill="#cac7e1" stroke="#cac7e1" stroke-width="1.51"/><path d="M1090,95L1193,-8L1055,37Z" fill="#af9dcc" stroke="#af9dcc" stroke-width="1.51"/><path d="M1260,281L1178,161L1148,334Z" fill="#9882be" stroke="#9882be" stroke-width="1.51"/><path d="M135,260L165,388L305,282Z" fill="#d7d7ea" stroke="#d7d7ea" stroke-width="1.51"/><path d="M156,203L305,282L309,237Z" fill="#dedded" stroke="#dedded" stroke-width="1.51"/><path d="M1201,462L1249,391L1161,442Z" fill="#806ab0" stroke="#806ab0" stroke-width="1.51"/><path d="M1230,595L1201,462L1177,596Z" fill="#705ba8" stroke="#705ba8" stroke-width="1.51"/><path d="M748,934L826,1007L899,926Z" fill="#694b9e" stroke="#694b9e" stroke-width="1.51"/><path d="M646,1024L728,972L637,888Z" fill="#7657a5" stroke="#7657a5" stroke-width="1.51"/><path d="M256,686L286,774L372,657Z" fill="#a390c6" stroke="#a390c6" stroke-width="1.51"/><path d="M166,746L286,774L256,686Z" fill="#a58ec5" stroke="#a58ec5" stroke-width="1.51"/><path d="M569,-62L422,-38L499,56Z" fill="#dfdfee" stroke="#dfdfee" stroke-width="1.51"/><path d="M492,-127L422,-38L569,-62Z" fill="#e0dfee" stroke="#e0dfee" stroke-width="1.51"/><path d="M1170,666L1230,595L1177,596Z" fill="#694fa3" stroke="#694fa3" stroke-width="1.51"/><path d="M1312,706L1230,595L1170,666Z" fill="#63439d" stroke="#63439d" stroke-width="1.51"/><path d="M425,870L404,898L562,919Z" fill="#8869b0" stroke="#8869b0" stroke-width="1.51"/><path d="M562,919L590,1010L637,888Z" fill="#7d5ea9" stroke="#7d5ea9" stroke-width="1.51"/><path d="M251,879L404,898L368,788Z" fill="#9577b8" stroke="#9577b8" stroke-width="1.51"/><path d="M422,-38L364,-18L499,56Z" fill="#e5e5f1" stroke="#e5e5f1" stroke-width="1.51"/><path d="M165,388L148,545L270,541Z" fill="#c0bcdb" stroke="#c0bcdb" stroke-width="1.51"/><path d="M227,620L165,646L256,686Z" fill="#ada0cd" stroke="#ada0cd" stroke-width="1.51"/><path d="M1249,391L1260,281L1148,334Z" fill="#8d76b8" stroke="#8d76b8" stroke-width="1.51"/><path d="M1374,332L1260,281L1249,391Z" fill="#896fb4" stroke="#896fb4" stroke-width="1.51"/><path d="M878,-59L787,-143L799,26Z" fill="#c4c1de" stroke="#c4c1de" stroke-width="1.51"/><path d="M989,-98L787,-143L878,-59Z" fill="#bfbbdc" stroke="#bfbbdc" stroke-width="1.51"/><path d="M1230,595L1281,516L1201,462Z" fill="#725aa9" stroke="#725aa9" stroke-width="1.51"/><path d="M364,-18L227,98L412,142Z" fill="#e8e7f2" stroke="#e8e7f2" stroke-width="1.51"/><path d="M148,545L165,646L227,620Z" fill="#b4abd4" stroke="#b4abd4" stroke-width="1.51"/><path d="M1178,161L1216,107L1090,95Z" fill="#a892c7" stroke="#a892c7" stroke-width="1.51"/><path d="M1260,281L1246,188L1178,161Z" fill="#9c84c0" stroke="#9c84c0" stroke-width="1.51"/><path d="M728,972L826,1007L748,934Z" fill="#6e4fa0" stroke="#6e4fa0" stroke-width="1.51"/><path d="M1083,1000L1092,914L976,883Z" fill="#583292" stroke="#583292" stroke-width="1.51"/><path d="M847,1060L826,1007L742,1101Z" fill="#6a4c9f" stroke="#6a4c9f" stroke-width="1.51"/><path d="M442,1044L590,1010L562,919Z" fill="#8263ad" stroke="#8263ad" stroke-width="1.51"/><path d="M227,98L156,203L309,237Z" fill="#e6e5f1" stroke="#e6e5f1" stroke-width="1.51"/><path d="M165,388L60,515L148,545Z" fill="#c4c0dd" stroke="#c4c0dd" stroke-width="1.51"/><path d="M364,-18L306,-46L227,98Z" fill="#eeedf5" stroke="#eeedf5" stroke-width="1.51"/><path d="M367,-121L306,-46L364,-18Z" fill="#ecebf4" stroke="#ecebf4" stroke-width="1.51"/><path d="M671,-110L492,-127L569,-62Z" fill="#d9d8ea" stroke="#d9d8ea" stroke-width="1.51"/><path d="M787,-143L492,-127L671,-110Z" fill="#d3d0e6" stroke="#d3d0e6" stroke-width="1.51"/><path d="M156,203L135,260L305,282Z" fill="#e0dfee" stroke="#e0dfee" stroke-width="1.51"/><path d="M1055,37L989,-98L1013,31Z" fill="#b7abd4" stroke="#b7abd4" stroke-width="1.51"/><path d="M1050,-126L989,-98L1055,37Z" fill="#b6a9d3" stroke="#b6a9d3" stroke-width="1.51"/><path d="M590,1010L646,1024L637,888Z" fill="#7a5ba8" stroke="#7a5ba8" stroke-width="1.51"/><path d="M1246,188L1216,107L1178,161Z" fill="#a38ac3" stroke="#a38ac3" stroke-width="1.51"/><path d="M1032,834L1178,835L1042,726Z" fill="#5e3b98" stroke="#5e3b98" stroke-width="1.51"/><path d="M1230,595L1382,681L1281,516Z" fill="#66499f" stroke="#66499f" stroke-width="1.51"/><path d="M976,883L1092,914L1032,834Z" fill="#5b3795" stroke="#5b3795" stroke-width="1.51"/><path d="M968,1039L976,883L899,926Z" fill="#5f3f98" stroke="#5f3f98" stroke-width="1.51"/><path d="M1092,914L1149,864L1032,834Z" fill="#583192" stroke="#583192" stroke-width="1.51"/><path d="M367,-121L364,-18L422,-38Z" fill="#e9e8f3" stroke="#e9e8f3" stroke-width="1.51"/><path d="M227,98L174,37L156,203Z" fill="#efecf5" stroke="#efecf5" stroke-width="1.51"/><path d="M1149,864L1178,835L1032,834Z" fill="#583192" stroke="#583192" stroke-width="1.51"/><path d="M165,646L166,746L256,686Z" fill="#ab98ca" stroke="#ab98ca" stroke-width="1.51"/><path d="M286,774L251,879L368,788Z" fill="#9b7ebd" stroke="#9b7ebd" stroke-width="1.51"/><path d="M74,712L166,746L165,646Z" fill="#ac99ca" stroke="#ac99ca" stroke-width="1.51"/><path d="M31,297L165,388L135,260Z" fill="#dbdaeb" stroke="#dbdaeb" stroke-width="1.51"/><path d="M306,-46L205,50L227,98Z" fill="#efeef6" stroke="#efeef6" stroke-width="1.51"/><path d="M590,1010L647,1061L646,1024Z" fill="#7a5ba7" stroke="#7a5ba7" stroke-width="1.51"/><path d="M646,1024L742,1101L728,972Z" fill="#7354a3" stroke="#7354a3" stroke-width="1.51"/><path d="M550,1092L647,1061L590,1010Z" fill="#7d5ea9" stroke="#7d5ea9" stroke-width="1.51"/><path d="M442,1044L562,919L404,898Z" fill="#8768af" stroke="#8768af" stroke-width="1.51"/><path d="M144,809L251,879L286,774Z" fill="#9f81be" stroke="#9f81be" stroke-width="1.51"/><path d="M171,-96L174,37L205,50Z" fill="#f5f4f9" stroke="#f5f4f9" stroke-width="1.51"/><path d="M492,-127L367,-121L422,-38Z" fill="#e5e5f1" stroke="#e5e5f1" stroke-width="1.51"/><path d="M-1,-127L367,-121L492,-127Z" fill="#efeef6" stroke="#efeef6" stroke-width="1.51"/><path d="M826,1007L968,1039L899,926Z" fill="#62459b" stroke="#62459b" stroke-width="1.51"/><path d="M742,1101L826,1007L728,972Z" fill="#6e4fa0" stroke="#6e4fa0" stroke-width="1.51"/><path d="M989,-98L1050,-126L787,-143Z" fill="#bcb5d9" stroke="#bcb5d9" stroke-width="1.51"/><path d="M1193,-8L1050,-126L1055,37Z" fill="#b3a1cf" stroke="#b3a1cf" stroke-width="1.51"/><path d="M148,545L33,592L165,646Z" fill="#b7afd5" stroke="#b7afd5" stroke-width="1.51"/><path d="M36,393L60,515L165,388Z" fill="#ccc9e2" stroke="#ccc9e2" stroke-width="1.51"/><path d="M1216,107L1193,-8L1090,95Z" fill="#ac95c9" stroke="#ac95c9" stroke-width="1.51"/><path d="M1307,85L1193,-8L1216,107Z" fill="#a88cc5" stroke="#a88cc5" stroke-width="1.51"/><path d="M1241,931L1247,803L1178,835Z" fill="#50228b" stroke="#50228b" stroke-width="1.51"/><path d="M1178,835L1247,803L1170,666Z" fill="#5a3394" stroke="#5a3394" stroke-width="1.51"/><path d="M1241,931L1178,835L1149,864Z" fill="#51248c" stroke="#51248c" stroke-width="1.51"/><path d="M1260,281L1354,243L1246,188Z" fill="#967bbb" stroke="#967bbb" stroke-width="1.51"/><path d="M1246,188L1307,85L1216,107Z" fill="#a287c2" stroke="#a287c2" stroke-width="1.51"/><path d="M1281,516L1366,388L1249,391Z" fill="#7c60ab" stroke="#7c60ab" stroke-width="1.51"/><path d="M1376,498L1366,388L1281,516Z" fill="#7458a6" stroke="#7458a6" stroke-width="1.51"/><path d="M205,50L174,37L227,98Z" fill="#f0eff6" stroke="#f0eff6" stroke-width="1.51"/><path d="M31,297L36,393L165,388Z" fill="#d6d5e9" stroke="#d6d5e9" stroke-width="1.51"/><path d="M171,-96L205,50L306,-46Z" fill="#f2f1f7" stroke="#f2f1f7" stroke-width="1.51"/><path d="M1092,914L1241,931L1149,864Z" fill="#51258b" stroke="#51258b" stroke-width="1.51"/><path d="M847,1060L968,1039L826,1007Z" fill="#64479c" stroke="#64479c" stroke-width="1.51"/><path d="M1247,803L1312,706L1170,666Z" fill="#5c3596" stroke="#5c3596" stroke-width="1.51"/><path d="M362,1012L442,1044L404,898Z" fill="#8d6db2" stroke="#8d6db2" stroke-width="1.51"/><path d="M31,297L135,260L58,164Z" fill="#e6e5f1" stroke="#e6e5f1" stroke-width="1.51"/><path d="M1417,639L1376,498L1281,516Z" fill="#684da0" stroke="#684da0" stroke-width="1.51"/><path d="M1374,332L1354,243L1260,281Z" fill="#8e72b5" stroke="#8e72b5" stroke-width="1.51"/><path d="M1374,332L1249,391L1366,388Z" fill="#8267af" stroke="#8267af" stroke-width="1.51"/><path d="M982,1144L1032,1109L968,1039Z" fill="#5c3995" stroke="#5c3995" stroke-width="1.51"/><path d="M647,1061L742,1101L646,1024Z" fill="#7556a5" stroke="#7556a5" stroke-width="1.51"/><path d="M550,1092L742,1101L647,1061Z" fill="#7859a6" stroke="#7859a6" stroke-width="1.51"/><path d="M1494,432L1374,332L1366,388Z" fill="#7c5eaa" stroke="#7c5eaa" stroke-width="1.51"/><path d="M251,879L362,1012L404,898Z" fill="#9171b4" stroke="#9171b4" stroke-width="1.51"/><path d="M251,879L265,1027L362,1012Z" fill="#9473b6" stroke="#9473b6" stroke-width="1.51"/><path d="M166,746L144,809L286,774Z" fill="#a388c3" stroke="#a388c3" stroke-width="1.51"/><path d="M74,712L144,809L166,746Z" fill="#a98fc6" stroke="#a98fc6" stroke-width="1.51"/><path d="M482,1142L550,1092L442,1044Z" fill="#8567ae" stroke="#8567ae" stroke-width="1.51"/><path d="M442,1044L550,1092L590,1010Z" fill="#8264ad" stroke="#8264ad" stroke-width="1.51"/><path d="M968,1039L1083,1000L976,883Z" fill="#5b3794" stroke="#5b3794" stroke-width="1.51"/><path d="M58,164L135,260L156,203Z" fill="#e8e7f2" stroke="#e8e7f2" stroke-width="1.51"/><path d="M1330,112L1307,85L1246,188Z" fill="#a083c0" stroke="#a083c0" stroke-width="1.51"/><path d="M1193,-8L1219,-144L1050,-126Z" fill="#b09acc" stroke="#b09acc" stroke-width="1.51"/><path d="M60,515L33,592L148,545Z" fill="#bdb9da" stroke="#bdb9da" stroke-width="1.51"/><path d="M-6,621L33,592L-47,541Z" fill="#bcb5d9" stroke="#bcb5d9" stroke-width="1.51"/><path d="M-14,383L60,515L36,393Z" fill="#cecce3" stroke="#cecce3" stroke-width="1.51"/><path d="M33,592L74,712L165,646Z" fill="#b2a5d0" stroke="#b2a5d0" stroke-width="1.51"/><path d="M1481,197L1330,112L1354,243Z" fill="#9777b8" stroke="#9777b8" stroke-width="1.51"/><path d="M1354,243L1330,112L1246,188Z" fill="#9b7ebc" stroke="#9b7ebc" stroke-width="1.51"/><path d="M174,37L58,164L156,203Z" fill="#efedf5" stroke="#efedf5" stroke-width="1.51"/><path d="M367,-121L249,-112L306,-46Z" fill="#eeedf5" stroke="#eeedf5" stroke-width="1.51"/><path d="M174,37L35,133L58,164Z" fill="#f2f0f7" stroke="#f2f0f7" stroke-width="1.51"/><path d="M89,912L190,923L144,809Z" fill="#9e7cbb" stroke="#9e7cbb" stroke-width="1.51"/><path d="M144,809L190,923L251,879Z" fill="#9c7cbb" stroke="#9c7cbb" stroke-width="1.51"/><path d="M1312,706L1382,681L1230,595Z" fill="#5f3c98" stroke="#5f3c98" stroke-width="1.51"/><path d="M1376,498L1469,484L1366,388Z" fill="#7255a4" stroke="#7255a4" stroke-width="1.51"/><path d="M1398,790L1382,681L1312,706Z" fill="#542b8f" stroke="#542b8f" stroke-width="1.51"/><path d="M1398,790L1312,706L1247,803Z" fill="#53268e" stroke="#53268e" stroke-width="1.51"/><path d="M31,297L-14,383L36,393Z" fill="#d9d8ea" stroke="#d9d8ea" stroke-width="1.51"/><path d="M-79,270L-14,383L31,297Z" fill="#dfdeee" stroke="#dfdeee" stroke-width="1.51"/><path d="M1083,1000L1241,931L1092,914Z" fill="#52278c" stroke="#52278c" stroke-width="1.51"/><path d="M58,164L-31,174L31,297Z" fill="#ebeaf4" stroke="#ebeaf4" stroke-width="1.51"/><path d="M22,-49L35,133L174,37Z" fill="#f7f5fa" stroke="#f7f5fa" stroke-width="1.51"/><path d="M33,592L-6,621L74,712Z" fill="#b6a8d3" stroke="#b6a8d3" stroke-width="1.51"/><path d="M74,712L18,793L144,809Z" fill="#a88ec6" stroke="#a88ec6" stroke-width="1.51"/><path d="M-47,541L33,592L60,515Z" fill="#c0bbdc" stroke="#c0bbdc" stroke-width="1.51"/><path d="M362,1012L367,1086L442,1044Z" fill="#8e6eb2" stroke="#8e6eb2" stroke-width="1.51"/><path d="M550,1092L482,1142L742,1101Z" fill="#7d5ea9" stroke="#7d5ea9" stroke-width="1.51"/><path d="M265,1027L367,1086L362,1012Z" fill="#9271b5" stroke="#9271b5" stroke-width="1.51"/><path d="M1446,632L1417,639L1382,681Z" fill="#5a3693" stroke="#5a3693" stroke-width="1.51"/><path d="M1382,681L1417,639L1281,516Z" fill="#61429a" stroke="#61429a" stroke-width="1.51"/><path d="M190,923L265,1027L251,879Z" fill="#9876b7" stroke="#9876b7" stroke-width="1.51"/><path d="M367,1086L482,1142L442,1044Z" fill="#8a6bb1" stroke="#8a6bb1" stroke-width="1.51"/><path d="M249,-112L171,-96L306,-46Z" fill="#f2f0f7" stroke="#f2f0f7" stroke-width="1.51"/><path d="M1083,1000L1135,1047L1241,931Z" fill="#51268c" stroke="#51268c" stroke-width="1.51"/><path d="M1032,1109L1135,1047L1083,1000Z" fill="#562e90" stroke="#562e90" stroke-width="1.51"/><path d="M1032,1109L1083,1000L968,1039Z" fill="#5a3593" stroke="#5a3593" stroke-width="1.51"/><path d="M968,1039L847,1060L982,1144Z" fill="#604199" stroke="#604199" stroke-width="1.51"/><path d="M982,1144L847,1060L742,1101Z" fill="#66489d" stroke="#66489d" stroke-width="1.51"/><path d="M1368,-30L1294,-50L1307,85Z" fill="#a788c3" stroke="#a788c3" stroke-width="1.51"/><path d="M1307,85L1294,-50L1193,-8Z" fill="#a98dc6" stroke="#a98dc6" stroke-width="1.51"/><path d="M190,923L205,1029L265,1027Z" fill="#9877b8" stroke="#9877b8" stroke-width="1.51"/><path d="M-6,621L7,722L74,712Z" fill="#b2a0ce" stroke="#b2a0ce" stroke-width="1.51"/><path d="M-106,771L-20,811L7,722Z" fill="#ac91c7" stroke="#ac91c7" stroke-width="1.51"/><path d="M-14,383L-47,541L60,515Z" fill="#c9c5e0" stroke="#c9c5e0" stroke-width="1.51"/><path d="M-110,435L-47,541L-14,383Z" fill="#ccc9e2" stroke="#ccc9e2" stroke-width="1.51"/><path d="M1446,632L1469,484L1376,498Z" fill="#66499d" stroke="#66499d" stroke-width="1.51"/><path d="M1374,332L1468,258L1354,243Z" fill="#8b6db2" stroke="#8b6db2" stroke-width="1.51"/><path d="M1330,112L1368,-30L1307,85Z" fill="#a384c0" stroke="#a384c0" stroke-width="1.51"/><path d="M1245,1065L1241,931L1135,1047Z" fill="#4d1e89" stroke="#4d1e89" stroke-width="1.51"/><path d="M482,1142L982,1144L742,1101Z" fill="#7051a2" stroke="#7051a2" stroke-width="1.51"/><path d="M1417,639L1446,632L1376,498Z" fill="#61429a" stroke="#61429a" stroke-width="1.51"/><path d="M1509,663L1446,632L1382,681Z" fill="#573291" stroke="#573291" stroke-width="1.51"/><path d="M1050,-126L1219,-144L787,-143Z" fill="#b7abd4" stroke="#b7abd4" stroke-width="1.51"/><path d="M1294,-50L1219,-144L1193,-8Z" fill="#ab90c8" stroke="#ab90c8" stroke-width="1.51"/><path d="M7,722L18,793L74,712Z" fill="#ad95c9" stroke="#ad95c9" stroke-width="1.51"/><path d="M-20,811L18,793L7,722Z" fill="#ab90c7" stroke="#ab90c7" stroke-width="1.51"/><path d="M1386,871L1398,790L1247,803Z" fill="#4c1b88" stroke="#4c1b88" stroke-width="1.51"/><path d="M1386,871L1247,803L1241,931Z" fill="#4b1987" stroke="#4b1987" stroke-width="1.51"/><path d="M1539,329L1468,258L1374,332Z" fill="#8567ae" stroke="#8567ae" stroke-width="1.51"/><path d="M35,133L-31,174L58,164Z" fill="#f1eff6" stroke="#f1eff6" stroke-width="1.51"/><path d="M-29,83L-31,174L35,133Z" fill="#f4f2f8" stroke="#f4f2f8" stroke-width="1.51"/><path d="M367,1086L250,1142L482,1142Z" fill="#9070b3" stroke="#9070b3" stroke-width="1.51"/><path d="M265,1027L250,1142L367,1086Z" fill="#9473b6" stroke="#9473b6" stroke-width="1.51"/><path d="M98,965L205,1029L190,923Z" fill="#9b79b9" stroke="#9b79b9" stroke-width="1.51"/><path d="M18,793L89,912L144,809Z" fill="#a384c0" stroke="#a384c0" stroke-width="1.51"/><path d="M1469,484L1494,432L1366,388Z" fill="#7455a4" stroke="#7455a4" stroke-width="1.51"/><path d="M1574,515L1494,432L1469,484Z" fill="#6e4fa1" stroke="#6e4fa1" stroke-width="1.51"/><path d="M1404,-104L1266,-133L1294,-50Z" fill="#a788c3" stroke="#a788c3" stroke-width="1.51"/><path d="M1294,-50L1266,-133L1219,-144Z" fill="#aa8dc6" stroke="#aa8dc6" stroke-width="1.51"/><path d="M1173,1111L1135,1047L1032,1109Z" fill="#542b8e" stroke="#542b8e" stroke-width="1.51"/><path d="M1245,1065L1288,980L1241,931Z" fill="#4a1786" stroke="#4a1786" stroke-width="1.51"/><path d="M-31,174L-79,270L31,297Z" fill="#e8e7f2" stroke="#e8e7f2" stroke-width="1.51"/><path d="M1475,124L1368,-30L1330,112Z" fill="#a07fbd" stroke="#a07fbd" stroke-width="1.51"/><path d="M-167,166L-114,298L-79,270Z" fill="#e8e8f2" stroke="#e8e8f2" stroke-width="1.51"/><path d="M171,-96L78,-75L174,37Z" fill="#f7f5fa" stroke="#f7f5fa" stroke-width="1.51"/><path d="M1468,258L1481,197L1354,243Z" fill="#9070b4" stroke="#9070b4" stroke-width="1.51"/><path d="M1533,168L1481,197L1468,258Z" fill="#9271b5" stroke="#9271b5" stroke-width="1.51"/><path d="M1288,980L1386,871L1241,931Z" fill="#471283" stroke="#471283" stroke-width="1.51"/><path d="M1398,790L1509,663L1382,681Z" fill="#52288d" stroke="#52288d" stroke-width="1.51"/><path d="M-52,910L98,965L89,912Z" fill="#9f7dbc" stroke="#9f7dbc" stroke-width="1.51"/><path d="M89,912L98,965L190,923Z" fill="#9d7aba" stroke="#9d7aba" stroke-width="1.51"/><path d="M22,-49L-29,83L35,133Z" fill="#f8f7fb" stroke="#f8f7fb" stroke-width="1.51"/><path d="M-106,771L7,722L-6,621Z" fill="#b19dcd" stroke="#b19dcd" stroke-width="1.51"/><path d="M-114,298L-110,435L-14,383Z" fill="#d7d6e9" stroke="#d7d6e9" stroke-width="1.51"/><path d="M18,793L-20,811L89,912Z" fill="#a586c1" stroke="#a586c1" stroke-width="1.51"/><path d="M-106,771L-6,621L-182,708Z" fill="#b19ece" stroke="#b19ece" stroke-width="1.51"/><path d="M1481,197L1475,124L1330,112Z" fill="#9877b8" stroke="#9877b8" stroke-width="1.51"/><path d="M982,1144L1173,1111L1032,1109Z" fill="#573191" stroke="#573191" stroke-width="1.51"/><path d="M1434,913L1466,847L1386,871Z" fill="#42067f" stroke="#42067f" stroke-width="1.51"/><path d="M-79,270L-114,298L-14,383Z" fill="#dedeee" stroke="#dedeee" stroke-width="1.51"/><path d="M-167,166L-79,270L-31,174Z" fill="#edecf5" stroke="#edecf5" stroke-width="1.51"/><path d="M1173,1111L1245,1065L1135,1047Z" fill="#4f218a" stroke="#4f218a" stroke-width="1.51"/><path d="M-29,83L-167,166L-31,174Z" fill="#f3f1f7" stroke="#f3f1f7" stroke-width="1.51"/><path d="M78,-75L22,-49L174,37Z" fill="#f8f7fb" stroke="#f8f7fb" stroke-width="1.51"/><path d="M1494,432L1539,329L1374,332Z" fill="#7e5faa" stroke="#7e5faa" stroke-width="1.51"/><path d="M1446,632L1574,515L1469,484Z" fill="#65489c" stroke="#65489c" stroke-width="1.51"/><path d="M1563,712L1509,663L1398,790Z" fill="#51258c" stroke="#51258c" stroke-width="1.51"/><path d="M-110,435L-126,502L-47,541Z" fill="#c7c4e0" stroke="#c7c4e0" stroke-width="1.51"/><path d="M-164,580L-126,502L-110,435Z" fill="#c5c2df" stroke="#c5c2df" stroke-width="1.51"/><path d="M1481,197L1533,168L1475,124Z" fill="#9675b7" stroke="#9675b7" stroke-width="1.51"/><path d="M1580,411L1539,329L1494,432Z" fill="#7a5ba8" stroke="#7a5ba8" stroke-width="1.51"/><path d="M205,1029L250,1142L265,1027Z" fill="#9776b7" stroke="#9776b7" stroke-width="1.51"/><path d="M98,965L152,1068L205,1029Z" fill="#9c7ab9" stroke="#9c7ab9" stroke-width="1.51"/><path d="M84,1148L152,1068L-13,1067Z" fill="#9e7cbb" stroke="#9e7cbb" stroke-width="1.51"/><path d="M152,1068L250,1142L205,1029Z" fill="#9978b8" stroke="#9978b8" stroke-width="1.51"/><path d="M482,1142L84,1148L982,1144Z" fill="#8365ad" stroke="#8365ad" stroke-width="1.51"/><path d="M22,-49L-44,13L-29,83Z" fill="#fbfafc" stroke="#fbfafc" stroke-width="1.51"/><path d="M1539,329L1533,168L1468,258Z" fill="#8d6db2" stroke="#8d6db2" stroke-width="1.51"/><path d="M1517,-25L1404,-104L1368,-30Z" fill="#a180bd" stroke="#a180bd" stroke-width="1.51"/><path d="M1386,871L1466,847L1398,790Z" fill="#471183" stroke="#471183" stroke-width="1.51"/><path d="M1434,913L1386,871L1288,980Z" fill="#430980" stroke="#430980" stroke-width="1.51"/><path d="M1577,622L1574,515L1446,632Z" fill="#5f4098" stroke="#5f4098" stroke-width="1.51"/><path d="M1539,329L1633,211L1533,168Z" fill="#8f6fb3" stroke="#8f6fb3" stroke-width="1.51"/><path d="M1577,622L1446,632L1509,663Z" fill="#5a3693" stroke="#5a3693" stroke-width="1.51"/><path d="M1574,515L1580,411L1494,432Z" fill="#7152a2" stroke="#7152a2" stroke-width="1.51"/><path d="M1364,1045L1434,913L1288,980Z" fill="#440a81" stroke="#440a81" stroke-width="1.51"/><path d="M1517,-25L1368,-30L1475,124Z" fill="#a07ebc" stroke="#a07ebc" stroke-width="1.51"/><path d="M1368,-30L1404,-104L1294,-50Z" fill="#a586c1" stroke="#a586c1" stroke-width="1.51"/><path d="M1266,-133L1513,-110L1219,-144Z" fill="#a788c2" stroke="#a788c2" stroke-width="1.51"/><path d="M-20,811L-52,910L89,912Z" fill="#a382bf" stroke="#a382bf" stroke-width="1.51"/><path d="M-164,580L-6,621L-47,541Z" fill="#bdb6d9" stroke="#bdb6d9" stroke-width="1.51"/><path d="M-126,502L-164,580L-47,541Z" fill="#c1bddd" stroke="#c1bddd" stroke-width="1.51"/><path d="M-114,298L-164,580L-110,435Z" fill="#cecbe3" stroke="#cecbe3" stroke-width="1.51"/><path d="M1574,515L1632,497L1580,411Z" fill="#6f50a1" stroke="#6f50a1" stroke-width="1.51"/><path d="M1563,712L1577,622L1509,663Z" fill="#573191" stroke="#573191" stroke-width="1.51"/><path d="M1563,712L1398,790L1466,847Z" fill="#4a1886" stroke="#4a1886" stroke-width="1.51"/><path d="M-106,771L-52,910L-20,811Z" fill="#a688c2" stroke="#a688c2" stroke-width="1.51"/><path d="M22,-49L-92,-7L-44,13Z" fill="#fcfbfd" stroke="#fcfbfd" stroke-width="1.51"/><path d="M78,-75L-1,-127L22,-49Z" fill="#fbf9fd" stroke="#fbf9fd" stroke-width="1.51"/><path d="M171,-96L-1,-127L78,-75Z" fill="#f9f8fb" stroke="#f9f8fb" stroke-width="1.51"/><path d="M249,-112L-1,-127L171,-96Z" fill="#f7f5fa" stroke="#f7f5fa" stroke-width="1.51"/><path d="M367,-121L-1,-127L249,-112Z" fill="#f4f2f8" stroke="#f4f2f8" stroke-width="1.51"/><path d="M787,-143L-1,-127L492,-127Z" fill="#e5e5f1" stroke="#e5e5f1" stroke-width="1.51"/><path d="M1418,1138L1364,1045L1245,1065Z" fill="#450d82" stroke="#450d82" stroke-width="1.51"/><path d="M1245,1065L1364,1045L1288,980Z" fill="#481284" stroke="#481284" stroke-width="1.51"/><path d="M1597,768L1466,847L1572,941Z" fill="#440a81" stroke="#440a81" stroke-width="1.51"/><path d="M1597,768L1563,712L1466,847Z" fill="#4b1a87" stroke="#4b1a87" stroke-width="1.51"/><path d="M-1,-127L-92,-7L22,-49Z" fill="#fcfbfd" stroke="#fcfbfd" stroke-width="1.51"/><path d="M-44,13L-92,-7L-29,83Z" fill="#faf9fc" stroke="#faf9fc" stroke-width="1.51"/><path d="M-114,298L-167,166L-164,580Z" fill="#dadaeb" stroke="#dadaeb" stroke-width="1.51"/><path d="M-183,99L-167,166L-29,83Z" fill="#f5f3f9" stroke="#f5f3f9" stroke-width="1.51"/><path d="M1703,594L1632,497L1577,622Z" fill="#61449a" stroke="#61449a" stroke-width="1.51"/><path d="M1577,622L1632,497L1574,515Z" fill="#65489c" stroke="#65489c" stroke-width="1.51"/><path d="M1671,272L1633,211L1539,329Z" fill="#8a6bb1" stroke="#8a6bb1" stroke-width="1.51"/><path d="M1603,88L1475,124L1533,168Z" fill="#9978b8" stroke="#9978b8" stroke-width="1.51"/><path d="M1577,19L1517,-25L1475,124Z" fill="#9f7dbb" stroke="#9f7dbb" stroke-width="1.51"/><path d="M-164,580L-182,708L-6,621Z" fill="#b7abd4" stroke="#b7abd4" stroke-width="1.51"/><path d="M-106,771L-138,935L-52,910Z" fill="#a382bf" stroke="#a382bf" stroke-width="1.51"/><path d="M-183,99L-182,708L-164,580Z" fill="#cbc8e1" stroke="#cbc8e1" stroke-width="1.51"/><path d="M-92,-7L-183,99L-29,83Z" fill="#f8f7fb" stroke="#f8f7fb" stroke-width="1.51"/><path d="M-167,166L-183,99L-164,580Z" fill="#e3e3f0" stroke="#e3e3f0" stroke-width="1.51"/><path d="M-151,-124L-183,99L-92,-7Z" fill="#fcfbfd" stroke="#fcfbfd" stroke-width="1.51"/><path d="M1671,272L1539,329L1580,411Z" fill="#8163ac" stroke="#8163ac" stroke-width="1.51"/><path d="M152,1068L84,1148L250,1142Z" fill="#9b79b9" stroke="#9b79b9" stroke-width="1.51"/><path d="M250,1142L84,1148L482,1142Z" fill="#9574b6" stroke="#9574b6" stroke-width="1.51"/><path d="M-13,1067L152,1068L98,965Z" fill="#9e7cbb" stroke="#9e7cbb" stroke-width="1.51"/><path d="M-28,1039L98,965L-52,910Z" fill="#a17fbd" stroke="#a17fbd" stroke-width="1.51"/><path d="M1572,941L1466,847L1434,913Z" fill="#3f007d" stroke="#3f007d" stroke-width="1.51"/><path d="M1682,745L1703,594L1577,622Z" fill="#583392" stroke="#583392" stroke-width="1.51"/><path d="M-127,1023L-28,1039L-52,910Z" fill="#a17fbd" stroke="#a17fbd" stroke-width="1.51"/><path d="M1633,211L1603,88L1533,168Z" fill="#9776b7" stroke="#9776b7" stroke-width="1.51"/><path d="M1603,88L1577,19L1475,124Z" fill="#9d7aba" stroke="#9d7aba" stroke-width="1.51"/><path d="M-28,1039L-13,1067L98,965Z" fill="#a17ebc" stroke="#a17ebc" stroke-width="1.51"/><path d="M1553,-92L1513,-110L1517,-25Z" fill="#a17fbd" stroke="#a17fbd" stroke-width="1.51"/><path d="M1517,-25L1513,-110L1404,-104Z" fill="#a17fbd" stroke="#a17fbd" stroke-width="1.51"/><path d="M1404,-104L1513,-110L1266,-133Z" fill="#a483bf" stroke="#a483bf" stroke-width="1.51"/><path d="M1633,211L1641,53L1603,88Z" fill="#9a78b9" stroke="#9a78b9" stroke-width="1.51"/><path d="M1688,421L1671,272L1580,411Z" fill="#7d5eaa" stroke="#7d5eaa" stroke-width="1.51"/><path d="M1688,421L1580,411L1632,497Z" fill="#7354a3" stroke="#7354a3" stroke-width="1.51"/><path d="M1418,1138L1480,1026L1364,1045Z" fill="#40027e" stroke="#40027e" stroke-width="1.51"/><path d="M1364,1045L1480,1026L1434,913Z" fill="#40027e" stroke="#40027e" stroke-width="1.51"/><path d="M1703,594L1688,421L1632,497Z" fill="#6a4c9f" stroke="#6a4c9f" stroke-width="1.51"/><path d="M-28,1039L-107,1088L-13,1067Z" fill="#a17fbd" stroke="#a17fbd" stroke-width="1.51"/><path d="M-182,708L-138,935L-106,771Z" fill="#a98bc4" stroke="#a98bc4" stroke-width="1.51"/><path d="M1577,19L1553,-92L1517,-25Z" fill="#a17fbd" stroke="#a17fbd" stroke-width="1.51"/><path d="M1682,-30L1553,-92L1577,19Z" fill="#a17fbd" stroke="#a17fbd" stroke-width="1.51"/><path d="M1641,53L1577,19L1603,88Z" fill="#9e7cbb" stroke="#9e7cbb" stroke-width="1.51"/><path d="M982,1144L1418,1138L1173,1111Z" fill="#4f218a" stroke="#4f218a" stroke-width="1.51"/><path d="M1173,1111L1418,1138L1245,1065Z" fill="#491585" stroke="#491585" stroke-width="1.51"/><path d="M1545,1017L1572,941L1480,1026Z" fill="#3f007d" stroke="#3f007d" stroke-width="1.51"/><path d="M1480,1026L1572,941L1434,913Z" fill="#3f007d" stroke="#3f007d" stroke-width="1.51"/><path d="M1682,745L1577,622L1563,712Z" fill="#542b8e" stroke="#542b8e" stroke-width="1.51"/><path d="M1671,272L1641,53L1633,211Z" fill="#9574b6" stroke="#9574b6" stroke-width="1.51"/><path d="M1682,745L1563,712L1597,768Z" fill="#4f218a" stroke="#4f218a" stroke-width="1.51"/><path d="M-1,-127L-151,-124L-92,-7Z" fill="#fcfbfd" stroke="#fcfbfd" stroke-width="1.51"/><path d="M787,-143L-151,-124L-1,-127Z" fill="#f3f2f8" stroke="#f3f2f8" stroke-width="1.51"/><path d="M-138,935L-127,1023L-52,910Z" fill="#a17fbd" stroke="#a17fbd" stroke-width="1.51"/><path d="M-13,1067L-107,1088L84,1148Z" fill="#a17fbd" stroke="#a17fbd" stroke-width="1.51"/><path d="M-182,708L-127,1023L-138,935Z" fill="#a280be" stroke="#a280be" stroke-width="1.51"/><path d="M1703,769L1682,745L1597,768Z" fill="#4d1d88" stroke="#4d1d88" stroke-width="1.51"/><path d="M1495,1091L1545,1017L1480,1026Z" fill="#3f007d" stroke="#3f007d" stroke-width="1.51"/><path d="M1703,769L1597,768L1663,929Z" fill="#471083" stroke="#471083" stroke-width="1.51"/><path d="M1418,1138L1495,1091L1480,1026Z" fill="#3f007d" stroke="#3f007d" stroke-width="1.51"/><path d="M-127,1023L-107,1088L-28,1039Z" fill="#a17fbd" stroke="#a17fbd" stroke-width="1.51"/><path d="M1663,929L1597,768L1572,941Z" fill="#41047e" stroke="#41047e" stroke-width="1.51"/><path d="M1682,745L1703,769L1703,594Z" fill="#53298d" stroke="#53298d" stroke-width="1.51"/><path d="M1641,53L1682,-30L1577,19Z" fill="#a07ebc" stroke="#a07ebc" stroke-width="1.51"/><path d="M1671,272L1682,-30L1641,53Z" fill="#9c7ab9" stroke="#9c7ab9" stroke-width="1.51"/><path d="M1713,-76L1682,-30L1671,272Z" fill="#9e7cbb" stroke="#9e7cbb" stroke-width="1.51"/><path d="M1713,-76L1671,272L1688,421Z" fill="#9271b5" stroke="#9271b5" stroke-width="1.51"/><path d="M1545,1017L1639,971L1572,941Z" fill="#3f007d" stroke="#3f007d" stroke-width="1.51"/><path d="M1663,1094L1639,971L1545,1017Z" fill="#3f007d" stroke="#3f007d" stroke-width="1.51"/><path d="M1639,971L1663,929L1572,941Z" fill="#3f007d" stroke="#3f007d" stroke-width="1.51"/><path d="M1682,-30L1713,-76L1553,-92Z" fill="#a17fbd" stroke="#a17fbd" stroke-width="1.51"/><path d="M1553,-92L1713,-76L1513,-110Z" fill="#a17fbd" stroke="#a17fbd" stroke-width="1.51"/><path d="M1703,594L1713,-76L1688,421Z" fill="#8566ae" stroke="#8566ae" stroke-width="1.51"/><path d="M1703,769L1713,-76L1703,594Z" fill="#7556a4" stroke="#7556a4" stroke-width="1.51"/><path d="M982,1144L1607,1139L1418,1138Z" fill="#450e82" stroke="#450e82" stroke-width="1.51"/><path d="M1418,1138L1607,1139L1495,1091Z" fill="#3f007d" stroke="#3f007d" stroke-width="1.51"/><path d="M1495,1091L1607,1139L1545,1017Z" fill="#3f007d" stroke="#3f007d" stroke-width="1.51"/><path d="M1639,971L1663,1094L1663,929Z" fill="#3f007d" stroke="#3f007d" stroke-width="1.51"/><path d="M1607,1139L1663,1094L1545,1017Z" fill="#3f007d" stroke="#3f007d" stroke-width="1.51"/><path d="M1663,929L1663,1094L1703,769Z" fill="#3f007d" stroke="#3f007d" stroke-width="1.51"/></svg>